<svg width="1440" height="1024" viewBox="0 0 1440 1024" fill="none" xmlns="http://www.w3.org/2000/svg">
<rect id="f3-rect-001" width="1440" height="1024" fill="white"/>
<path id="f3-path-001" d="M1044 261.5V273.5H1068.5V323.5H949.5V261.5H1044Z" fill="#DED9B1" stroke="black"/>
<rect id="f3-rect-002" x="700.5" y="251.5" width="133" height="152" fill="#D9D9D9" stroke="black"/>
<path id="f3-path-002" d="M833.5 251.5V305.5H700.5V251.5H833.5Z" fill="#D6F19B" stroke="black"/>
<path id="f3-path-003" d="M833.5 349.5V403.5H700.5V349.5H833.5Z" fill="#AFE5B5" stroke="black"/>
<rect id="f3-rect-003" x="-0.5" y="0.5" width="38" height="25" transform="matrix(-1 0 0 1 739 305)" fill="#0D0D0D" stroke="#221F1F"/>
<rect id="f3-rect-004" x="-0.5" y="0.5" width="14" height="44" transform="matrix(-1 0 0 1 714 305)" fill="#F2EEEE" stroke="black"/>
<rect id="f3-rect-005" x="-0.5" y="0.5" width="10" height="21" transform="matrix(-1 0 0 1 739 328)" fill="#F2EEEE" stroke="black"/>
<rect id="f3-rect-006" x="-0.5" y="0.5" width="4" height="19" transform="matrix(-1 0 0 1 729 329)" fill="#F2EEEE" stroke="black"/>
<rect id="f3-rect-007" x="-0.5" y="0.5" width="4" height="17" transform="matrix(-1 0 0 1 725 330)" fill="#F2EEEE" stroke="black"/>
<rect id="f3-rect-008" x="-0.5" y="0.5" width="4" height="15" transform="matrix(-1 0 0 1 721 331)" fill="#F2EEEE" stroke="black"/>
<rect id="f3-rect-009" x="-0.5" y="0.5" width="3" height="13" transform="matrix(-1 0 0 1 717 332)" fill="#F2EEEE" stroke="black"/>
<rect id="f3-rect-010" x="-0.5" y="0.5" width="4" height="22" transform="matrix(-1 0 0 1 718 305)" fill="#F2EEEE" stroke="black"/>
<rect id="f3-rect-011" x="-0.5" y="0.5" width="4" height="20" transform="matrix(-1 0 0 1 722 306)" fill="#F2EEEE" stroke="black"/>
<rect id="f3-rect-012" x="-0.5" y="0.5" width="4" height="18" transform="matrix(-1 0 0 1 726 307)" fill="#F2EEEE" stroke="black"/>
<rect id="f3-rect-013" x="-0.5" y="0.5" width="4" height="16" transform="matrix(-1 0 0 1 730 308)" fill="#F2EEEE" stroke="black"/>
<rect id="f3-rect-014" x="-0.5" y="0.5" width="4" height="14" transform="matrix(-1 0 0 1 734 309)" fill="#F2EEEE" stroke="black"/>
<rect id="f3-rect-015" x="-0.5" y="0.5" width="4" height="12" transform="matrix(-1 0 0 1 738 310)" fill="#F2EEEE" stroke="black"/>
<rect id="f3-rect-016" x="-0.5" y="0.5" width="19" height="16" transform="matrix(-1 0 0 1 1003 261)" fill="#0D0D0D" stroke="#221F1F"/>
<rect id="f3-rect-017" x="-0.5" y="0.5" width="9" height="24" transform="matrix(-1 0 0 1 991 261)" fill="#F2EEEE" stroke="black"/>
<rect id="f3-rect-018" x="-0.5" y="0.5" width="7" height="3" transform="matrix(-1 0 0 1 990 286)" fill="#F2EEEE" stroke="black"/>
<rect id="f3-rect-019" x="-0.5" y="0.5" width="9" height="3" transform="matrix(-1 0 0 1 991 289)" fill="#F2EEEE" stroke="black"/>
<rect id="f3-rect-020" x="-0.5" y="0.5" width="11" height="3" transform="matrix(-1 0 0 1 992 292)" fill="#F2EEEE" stroke="black"/>
<rect id="f3-rect-021" x="-0.5" y="0.5" width="13" height="3" transform="matrix(-1 0 0 1 993 295)" fill="#F2EEEE" stroke="black"/>
<rect id="f3-rect-022" x="-0.5" y="0.5" width="15" height="3" transform="matrix(-1 0 0 1 994 298)" fill="#F2EEEE" stroke="black"/>
<rect id="f3-rect-023" x="-0.5" y="0.5" width="3" height="15" transform="matrix(-1 0 0 1 994 262)" fill="#F2EEEE" stroke="black"/>
<rect id="f3-rect-024" x="-0.5" y="0.5" width="3" height="13" transform="matrix(-1 0 0 1 997 263)" fill="#F2EEEE" stroke="black"/>
<rect id="f3-rect-025" x="-0.5" y="0.5" width="3" height="11" transform="matrix(-1 0 0 1 1000 264)" fill="#F2EEEE" stroke="black"/>
<rect id="f3-rect-026" x="-0.5" y="0.5" width="3" height="9" transform="matrix(-1 0 0 1 1003 265)" fill="#F2EEEE" stroke="black"/>
<rect id="f3-rect-027" x="-0.5" y="0.5" width="94" height="44" transform="matrix(-1 0 0 1 833 305)" fill="#C1F8C2" stroke="black"/>
<path id="f3-path-004" d="M739.5 305.5V328.5H751.5V349.5H833.5V305.5H739.5Z" fill="#E4FCDE" stroke="black"/>
<line id="f3-line-001" x1="795" y1="305.5" x2="779" y2="305.5" stroke="#FF6565"/>
<line id="f3-line-002" x1="795" y1="349.5" x2="779" y2="349.5" stroke="#FF6565"/>
<line id="f3-line-003" x1="751.5" y1="344" x2="751.5" y2="334" stroke="#FF6565"/>
<path id="f3-path-005" d="M704.883 339.674L704.659 339.673L704.672 337.313C704.676 336.631 704.879 336.109 705.281 335.749C705.682 335.383 706.305 335.202 707.147 335.207L707.651 335.209C708.494 335.214 709.117 335.401 709.52 335.771C709.918 336.136 710.116 336.66 710.112 337.343L710.099 339.703L709.875 339.701L709.822 339.261C709.811 339.176 709.79 339.125 709.758 339.109C709.721 339.093 709.612 339.084 709.431 339.083L705.335 339.061C705.153 339.06 705.047 339.067 705.014 339.083C704.977 339.099 704.953 339.149 704.942 339.235L704.883 339.674ZM704.952 337.355L704.948 338.099L709.828 338.125L709.832 337.381C709.833 337.109 709.789 336.89 709.699 336.724C709.604 336.559 709.429 336.438 709.173 336.362C708.912 336.28 708.537 336.238 708.046 336.235L706.742 336.228C706.251 336.226 705.878 336.264 705.621 336.342C705.365 336.416 705.191 336.535 705.099 336.7C705.002 336.864 704.953 337.083 704.952 337.355ZM708.036 330.604L708.196 330.605C708.81 330.608 709.302 330.771 709.674 331.093C710.04 331.409 710.222 331.861 710.218 332.448C710.215 333.034 710.029 333.487 709.659 333.805C709.284 334.117 708.79 334.272 708.177 334.269L708.017 334.268C707.403 334.264 706.913 334.104 706.547 333.788C706.181 333.466 705.999 333.011 706.003 332.425C706.006 331.838 706.192 331.388 706.562 331.076C706.932 330.758 707.423 330.6 708.036 330.604ZM707.871 331.587C707.3 331.584 706.895 331.654 706.654 331.796C706.408 331.939 706.284 332.149 706.283 332.426C706.281 332.698 706.403 332.91 706.647 333.06C706.886 333.206 707.291 333.28 707.862 333.283L708.342 333.285C708.907 333.289 709.316 333.219 709.567 333.076C709.813 332.928 709.937 332.718 709.938 332.446C709.94 332.169 709.818 331.957 709.574 331.812C709.324 331.667 708.916 331.593 708.351 331.59L707.871 331.587ZM706.797 324.668L710.176 325.558L710.172 326.286L706.951 327.229L710.161 328.214L710.158 328.878L706.769 329.724C706.646 329.755 706.561 329.781 706.513 329.802C706.459 329.818 706.425 329.839 706.408 329.866C706.392 329.892 706.381 329.932 706.376 329.986L706.317 330.425L706.093 330.424L706.105 328.296L706.329 328.297L706.382 328.738C706.393 328.823 706.416 328.871 706.454 328.882C706.486 328.893 706.592 328.875 706.774 328.828L709.185 328.217L706.11 327.28L706.114 326.576L709.335 325.642L706.795 324.98C706.614 324.931 706.507 324.912 706.475 324.922C706.438 324.933 706.413 324.981 706.402 325.066L706.344 325.505L706.12 325.504L706.128 323.96L706.352 323.962L706.406 324.402C706.411 324.455 706.421 324.495 706.437 324.522C706.453 324.549 706.488 324.573 706.541 324.595C706.589 324.611 706.674 324.635 706.797 324.668ZM709.987 319.126L710.211 319.128L710.199 321.279L709.975 321.278L709.921 320.838C709.911 320.753 709.89 320.702 709.858 320.686C709.821 320.669 709.712 320.661 709.53 320.66L707.514 320.649C707.146 320.647 706.879 320.702 706.713 320.813C706.542 320.918 706.456 321.078 706.455 321.291C706.454 321.382 706.478 321.489 706.525 321.612C706.567 321.729 706.646 321.85 706.763 321.973C706.88 322.091 707.053 322.196 707.281 322.288L709.521 322.3C709.703 322.301 709.812 322.293 709.85 322.278C709.882 322.262 709.903 322.211 709.914 322.126L709.973 321.686L710.197 321.687L710.185 323.839L709.961 323.838L709.907 323.398C709.897 323.313 709.876 323.262 709.844 323.246C709.807 323.229 709.698 323.221 709.516 323.22L706.804 323.205C706.623 323.204 706.516 323.212 706.484 323.227C706.447 323.243 706.423 323.294 706.411 323.379L706.353 323.819L706.129 323.817L706.137 322.33L706.841 322.333C706.57 322.177 706.374 321.979 706.252 321.738C706.126 321.492 706.063 321.246 706.064 321.001C706.066 320.606 706.194 320.295 706.445 320.067C706.697 319.839 707.053 319.726 707.511 319.729L709.535 319.74C709.717 319.741 709.826 319.733 709.863 319.718C709.895 319.702 709.917 319.651 709.928 319.566L709.987 319.126Z" fill="#121112"/>
<path id="f3-path-006" d="M750.772 274.608V275H746.936V274.608L747.706 274.51C747.855 274.491 747.944 274.454 747.972 274.398C748 274.333 748.014 274.141 748.014 273.824V266.628L745.452 273.88H743.954L741.42 266.67V273.824C741.42 274.141 741.434 274.333 741.462 274.398C741.49 274.454 741.578 274.491 741.728 274.51L742.498 274.608V275H739.782V274.608L740.552 274.51C740.701 274.491 740.79 274.454 740.818 274.398C740.846 274.333 740.86 274.141 740.86 273.824V266.656C740.86 266.339 740.846 266.152 740.818 266.096C740.79 266.031 740.701 265.989 740.552 265.97L739.782 265.872V265.48H742.736L745.298 272.76L747.902 265.48H750.772V265.872L750.002 265.97C749.852 265.989 749.764 266.031 749.736 266.096C749.708 266.152 749.694 266.339 749.694 266.656V273.824C749.694 274.141 749.708 274.333 749.736 274.398C749.764 274.454 749.852 274.491 750.002 274.51L750.772 274.608ZM758.837 274.65C758.688 274.79 758.506 274.907 758.291 275C758.086 275.093 757.834 275.14 757.535 275.14C757.152 275.14 756.83 275.056 756.569 274.888C756.317 274.72 756.149 274.482 756.065 274.174C755.757 274.51 755.416 274.757 755.043 274.916C754.679 275.065 754.306 275.14 753.923 275.14C753.279 275.14 752.798 274.963 752.481 274.608C752.164 274.244 752.005 273.791 752.005 273.25C752.005 272.699 752.206 272.256 752.607 271.92C753.008 271.575 753.718 271.402 754.735 271.402H756.009V270.268C756.009 269.493 755.906 268.966 755.701 268.686C755.505 268.397 755.23 268.252 754.875 268.252C754.642 268.252 754.427 268.313 754.231 268.434C754.035 268.546 753.895 268.761 753.811 269.078C753.736 269.386 753.75 269.834 753.853 270.422L752.313 270.198C752.238 269.769 752.285 269.372 752.453 269.008C752.63 268.635 752.924 268.336 753.335 268.112C753.746 267.879 754.268 267.762 754.903 267.762C755.622 267.762 756.177 267.879 756.569 268.112C756.961 268.345 757.232 268.653 757.381 269.036C757.54 269.419 757.619 269.829 757.619 270.268V273.502C757.619 273.978 757.661 274.277 757.745 274.398C757.829 274.519 757.922 274.58 758.025 274.58C758.193 274.58 758.38 274.482 758.585 274.286L758.837 274.65ZM754.539 274.398C754.782 274.398 755.02 274.337 755.253 274.216C755.496 274.085 755.748 273.847 756.009 273.502V271.892H754.959C754.502 271.892 754.17 271.999 753.965 272.214C753.76 272.429 753.657 272.765 753.657 273.222C753.657 273.595 753.732 273.885 753.881 274.09C754.03 274.295 754.25 274.398 754.539 274.398ZM762.658 275.7C762.443 276.288 762.205 276.759 761.944 277.114C761.692 277.469 761.379 277.725 761.006 277.884C760.633 278.043 760.166 278.122 759.606 278.122V276.582C760.175 276.582 760.633 276.54 760.978 276.456C761.333 276.381 761.603 276.255 761.79 276.078C761.986 275.91 762.131 275.691 762.224 275.42L762.364 275H761.636L759.648 269.078C759.583 268.863 759.527 268.714 759.48 268.63C759.443 268.537 759.396 268.476 759.34 268.448C759.293 268.42 759.219 268.401 759.116 268.392L758.346 268.294V267.902H762.126V268.294L761.356 268.392C761.244 268.401 761.174 268.439 761.146 268.504C761.127 268.56 761.169 268.751 761.272 269.078L762.798 273.698L764.38 269.022C764.483 268.723 764.525 268.551 764.506 268.504C764.497 268.448 764.422 268.411 764.282 268.392L763.512 268.294V267.902H766.186V268.294L765.416 268.392C765.276 268.411 765.183 268.448 765.136 268.504C765.089 268.56 765.015 268.733 764.912 269.022L762.658 275.7ZM772.761 271.304V271.584C772.761 272.657 772.481 273.521 771.921 274.174C771.37 274.818 770.582 275.14 769.555 275.14C768.528 275.14 767.735 274.818 767.175 274.174C766.624 273.521 766.349 272.657 766.349 271.584V271.304C766.349 270.231 766.624 269.372 767.175 268.728C767.735 268.084 768.528 267.762 769.555 267.762C770.582 267.762 771.37 268.084 771.921 268.728C772.481 269.372 772.761 270.231 772.761 271.304ZM771.039 271.024C771.039 270.025 770.913 269.316 770.661 268.896C770.409 268.467 770.04 268.252 769.555 268.252C769.079 268.252 768.71 268.467 768.449 268.896C768.197 269.316 768.071 270.025 768.071 271.024V271.864C768.071 272.853 768.197 273.567 768.449 274.006C768.71 274.435 769.079 274.65 769.555 274.65C770.04 274.65 770.409 274.435 770.661 274.006C770.913 273.567 771.039 272.853 771.039 271.864V271.024ZM773.804 268.294V267.902H776.408V269.05C776.978 268.191 777.654 267.762 778.438 267.762C778.728 267.762 779.008 267.855 779.278 268.042C779.549 268.219 779.773 268.555 779.95 269.05L778.704 269.722C778.574 269.339 778.42 269.083 778.242 268.952C778.074 268.812 777.892 268.742 777.696 268.742C777.491 268.742 777.29 268.807 777.094 268.938C776.898 269.069 776.698 269.311 776.492 269.666V273.824C776.492 274.141 776.506 274.333 776.534 274.398C776.562 274.454 776.651 274.491 776.8 274.51L777.85 274.608V275H773.804V274.608L774.574 274.51C774.724 274.491 774.812 274.454 774.84 274.398C774.868 274.333 774.882 274.141 774.882 273.824V269.078C774.882 268.761 774.868 268.574 774.84 268.518C774.812 268.453 774.724 268.411 774.574 268.392L773.804 268.294ZM782.651 266.446C782.651 266.801 782.53 267.23 782.287 267.734C782.054 268.229 781.699 268.751 781.223 269.302L780.901 269.022C781.219 268.639 781.438 268.299 781.559 268C781.69 267.701 781.76 267.426 781.769 267.174H781.727C781.457 267.174 781.237 267.09 781.069 266.922C780.901 266.754 780.817 266.53 780.817 266.25C780.817 265.979 780.901 265.76 781.069 265.592C781.237 265.424 781.457 265.34 781.727 265.34C781.998 265.34 782.217 265.438 782.385 265.634C782.563 265.821 782.651 266.091 782.651 266.446ZM786.608 272.354L785.642 272.13C785.016 271.981 784.55 271.715 784.242 271.332C783.943 270.94 783.794 270.478 783.794 269.946C783.794 269.554 783.878 269.195 784.046 268.868C784.223 268.532 784.498 268.266 784.872 268.07C785.245 267.865 785.73 267.762 786.328 267.762C786.972 267.762 787.494 267.865 787.896 268.07C788.297 268.275 788.582 268.546 788.75 268.882C788.918 269.218 788.969 269.577 788.904 269.96L787.364 270.24C787.494 269.605 787.457 269.115 787.252 268.77C787.056 268.425 786.724 268.252 786.258 268.252C785.931 268.252 785.66 268.35 785.446 268.546C785.231 268.733 785.124 269.003 785.124 269.358C785.124 269.685 785.217 269.974 785.404 270.226C785.59 270.469 785.866 270.632 786.23 270.716L787.196 270.94C787.886 271.099 788.386 271.351 788.694 271.696C789.002 272.032 789.156 272.452 789.156 272.956C789.156 273.581 788.922 274.104 788.456 274.524C787.998 274.935 787.312 275.14 786.398 275.14C786.08 275.14 785.73 275.093 785.348 275C784.974 274.897 784.629 274.715 784.312 274.454C784.004 274.193 783.78 273.819 783.64 273.334L784.55 272.97C784.615 273.586 784.825 274.02 785.18 274.272C785.544 274.524 785.95 274.65 786.398 274.65C786.818 274.65 787.158 274.557 787.42 274.37C787.69 274.174 787.826 273.894 787.826 273.53C787.826 273.278 787.737 273.049 787.56 272.844C787.392 272.629 787.074 272.466 786.608 272.354ZM754.391 286.792V287.674C754.391 289.111 754.069 290.217 753.425 290.992C752.79 291.757 751.848 292.14 750.597 292.14C749.346 292.14 748.399 291.757 747.755 290.992C747.12 290.217 746.803 289.111 746.803 287.674V286.792C746.803 285.355 747.12 284.253 747.755 283.488C748.399 282.723 749.346 282.34 750.597 282.34C751.848 282.34 752.79 282.723 753.425 283.488C754.069 284.253 754.391 285.355 754.391 286.792ZM752.599 286.092C752.599 285.271 752.529 284.627 752.389 284.16C752.249 283.684 752.03 283.343 751.731 283.138C751.442 282.933 751.064 282.83 750.597 282.83C750.14 282.83 749.762 282.933 749.463 283.138C749.164 283.343 748.945 283.684 748.805 284.16C748.665 284.627 748.595 285.271 748.595 286.092V288.374C748.595 289.186 748.665 289.83 748.805 290.306C748.945 290.782 749.164 291.127 749.463 291.342C749.762 291.547 750.14 291.65 750.597 291.65C751.064 291.65 751.442 291.547 751.731 291.342C752.03 291.127 752.249 290.782 752.389 290.306C752.529 289.83 752.599 289.186 752.599 288.374V286.092ZM763.923 291.608V292H760.157V291.608L760.927 291.51C761.076 291.491 761.165 291.454 761.193 291.398C761.221 291.333 761.235 291.141 761.235 290.824V285.392H758.323V290.824C758.323 291.141 758.337 291.333 758.365 291.398C758.393 291.454 758.481 291.491 758.631 291.51L759.401 291.608V292H755.635V291.608L756.405 291.51C756.554 291.491 756.643 291.454 756.671 291.398C756.699 291.333 756.713 291.141 756.713 290.824V286.078C756.713 285.761 756.699 285.574 756.671 285.518C756.643 285.453 756.554 285.411 756.405 285.392L755.635 285.294V284.902H756.713V284.566C756.713 284.071 756.811 283.6 757.007 283.152C757.212 282.704 757.543 282.34 758.001 282.06C758.458 281.78 759.065 281.64 759.821 281.64C760.278 281.64 760.679 281.715 761.025 281.864C761.37 282.013 761.655 282.209 761.879 282.452C762.121 282.163 762.443 281.934 762.845 281.766C763.246 281.589 763.745 281.5 764.343 281.5C764.996 281.5 765.547 281.603 765.995 281.808C766.443 282.004 766.774 282.265 766.989 282.592C767.203 282.909 767.278 283.259 767.213 283.642L765.673 283.866C765.775 283.203 765.701 282.727 765.449 282.438C765.206 282.139 764.837 281.99 764.343 281.99C764.044 281.99 763.778 282.055 763.544 282.186C763.321 282.307 763.148 282.527 763.026 282.844C762.905 283.152 762.845 283.586 762.845 284.146V284.902H767.367V290.824C767.367 291.141 767.381 291.333 767.409 291.398C767.437 291.454 767.525 291.491 767.675 291.51L768.445 291.608V292H764.679V291.608L765.449 291.51C765.598 291.491 765.687 291.454 765.715 291.398C765.743 291.333 765.757 291.141 765.757 290.824V285.392H762.845V290.824C762.845 291.141 762.859 291.333 762.887 291.398C762.915 291.454 763.003 291.491 763.153 291.51L763.923 291.608ZM758.323 284.902H761.235V284.286C761.235 283.446 761.118 282.877 760.885 282.578C760.651 282.279 760.297 282.13 759.821 282.13C759.531 282.13 759.275 282.191 759.051 282.312C758.827 282.424 758.649 282.634 758.519 282.942C758.388 283.25 758.323 283.698 758.323 284.286V284.902ZM772.464 285.252C772.016 285.252 771.68 285.467 771.456 285.896C771.241 286.316 771.134 287.025 771.134 288.024V288.864C771.134 289.853 771.26 290.567 771.512 291.006C771.764 291.435 772.175 291.65 772.744 291.65C773.164 291.65 773.505 291.533 773.766 291.3C774.037 291.057 774.191 290.651 774.228 290.082L775.124 290.334C774.956 290.987 774.648 291.454 774.2 291.734C773.761 292.005 773.243 292.14 772.646 292.14C771.573 292.14 770.765 291.818 770.224 291.174C769.683 290.521 769.412 289.657 769.412 288.584V288.304C769.412 287.231 769.673 286.372 770.196 285.728C770.719 285.084 771.475 284.762 772.464 284.762C773.117 284.762 773.649 284.893 774.06 285.154C774.48 285.406 774.774 285.742 774.942 286.162C775.119 286.573 775.166 287.016 775.082 287.492L773.542 287.716C773.645 286.932 773.603 286.325 773.416 285.896C773.229 285.467 772.912 285.252 772.464 285.252ZM782.347 290.334C782.179 290.987 781.866 291.454 781.409 291.734C780.952 292.005 780.42 292.14 779.813 292.14C778.693 292.14 777.853 291.818 777.293 291.174C776.733 290.521 776.453 289.657 776.453 288.584V288.304C776.453 287.231 776.714 286.372 777.237 285.728C777.769 285.084 778.534 284.762 779.533 284.762C780.093 284.762 780.588 284.874 781.017 285.098C781.456 285.313 781.796 285.625 782.039 286.036C782.291 286.447 782.417 286.946 782.417 287.534C782.417 287.674 782.408 287.823 782.389 287.982C782.38 288.141 782.356 288.299 782.319 288.458H778.175V288.864C778.175 289.853 778.315 290.567 778.595 291.006C778.875 291.435 779.328 291.65 779.953 291.65C780.354 291.65 780.695 291.533 780.975 291.3C781.255 291.057 781.414 290.651 781.451 290.082L782.347 290.334ZM779.533 285.252C779.076 285.252 778.735 285.462 778.511 285.882C778.287 286.302 778.175 286.997 778.175 287.968H780.709C780.746 287.781 780.77 287.609 780.779 287.45C780.798 287.282 780.807 287.128 780.807 286.988C780.807 286.391 780.69 285.952 780.457 285.672C780.224 285.392 779.916 285.252 779.533 285.252Z" fill="#121112"/>
<path id="f3-path-007" d="M983.883 284.674L983.659 284.673L983.672 282.313C983.676 281.631 983.879 281.109 984.281 280.749C984.682 280.383 985.305 280.202 986.147 280.207L986.651 280.209C987.494 280.214 988.117 280.401 988.52 280.771C988.918 281.136 989.116 281.66 989.112 282.343L989.099 284.703L988.875 284.701L988.822 284.261C988.811 284.176 988.79 284.125 988.758 284.109C988.721 284.093 988.612 284.084 988.431 284.083L984.335 284.061C984.153 284.06 984.047 284.067 984.014 284.083C983.977 284.099 983.953 284.149 983.942 284.235L983.883 284.674ZM983.952 282.355L983.948 283.099L988.828 283.125L988.832 282.381C988.833 282.109 988.789 281.89 988.699 281.724C988.604 281.559 988.429 281.438 988.173 281.362C987.912 281.28 987.537 281.238 987.046 281.235L985.742 281.228C985.251 281.226 984.878 281.264 984.621 281.342C984.365 281.416 984.191 281.535 984.099 281.7C984.002 281.864 983.953 282.083 983.952 282.355ZM987.036 275.604L987.196 275.605C987.81 275.608 988.302 275.771 988.674 276.093C989.04 276.409 989.222 276.861 989.218 277.448C989.215 278.034 989.029 278.487 988.659 278.805C988.284 279.117 987.79 279.272 987.177 279.269L987.017 279.268C986.403 279.264 985.913 279.104 985.547 278.788C985.181 278.466 984.999 278.011 985.003 277.425C985.006 276.838 985.192 276.388 985.562 276.076C985.932 275.758 986.423 275.6 987.036 275.604ZM986.871 276.587C986.3 276.584 985.895 276.654 985.654 276.796C985.408 276.939 985.284 277.149 985.283 277.426C985.281 277.698 985.403 277.91 985.647 278.06C985.886 278.206 986.291 278.28 986.862 278.283L987.342 278.285C987.907 278.289 988.316 278.219 988.567 278.076C988.813 277.928 988.937 277.718 988.938 277.446C988.94 277.169 988.818 276.957 988.574 276.812C988.324 276.667 987.916 276.593 987.351 276.59L986.871 276.587ZM985.797 269.668L989.176 270.558L989.172 271.286L985.951 272.229L989.161 273.214L989.158 273.878L985.769 274.724C985.646 274.755 985.561 274.781 985.513 274.802C985.459 274.818 985.425 274.839 985.408 274.866C985.392 274.892 985.381 274.932 985.376 274.986L985.317 275.425L985.093 275.424L985.105 273.296L985.329 273.297L985.382 273.738C985.393 273.823 985.416 273.871 985.454 273.882C985.486 273.893 985.592 273.875 985.774 273.828L988.185 273.217L985.11 272.28L985.114 271.576L988.335 270.642L985.795 269.98C985.614 269.931 985.507 269.912 985.475 269.922C985.438 269.933 985.413 269.981 985.402 270.066L985.344 270.505L985.12 270.504L985.128 268.96L985.352 268.962L985.406 269.402C985.411 269.455 985.421 269.495 985.437 269.522C985.453 269.549 985.488 269.573 985.541 269.595C985.589 269.611 985.674 269.635 985.797 269.668ZM988.987 264.126L989.211 264.128L989.199 266.279L988.975 266.278L988.921 265.838C988.911 265.753 988.89 265.702 988.858 265.686C988.821 265.669 988.712 265.661 988.53 265.66L986.514 265.649C986.146 265.647 985.879 265.702 985.713 265.813C985.542 265.918 985.456 266.078 985.455 266.291C985.454 266.382 985.478 266.489 985.525 266.612C985.567 266.729 985.646 266.85 985.763 266.973C985.88 267.091 986.053 267.196 986.281 267.288L988.521 267.3C988.703 267.301 988.812 267.293 988.85 267.278C988.882 267.262 988.903 267.211 988.914 267.126L988.973 266.686L989.197 266.687L989.185 268.839L988.961 268.838L988.907 268.398C988.897 268.313 988.876 268.262 988.844 268.246C988.807 268.229 988.698 268.221 988.516 268.22L985.804 268.205C985.623 268.204 985.516 268.212 985.484 268.227C985.447 268.243 985.423 268.294 985.411 268.379L985.353 268.819L985.129 268.817L985.137 267.33L985.841 267.333C985.57 267.177 985.374 266.979 985.252 266.738C985.126 266.492 985.063 266.246 985.064 266.001C985.066 265.606 985.194 265.295 985.445 265.067C985.697 264.839 986.053 264.726 986.511 264.729L988.535 264.74C988.717 264.741 988.826 264.733 988.863 264.718C988.895 264.702 988.917 264.651 988.928 264.566L988.987 264.126Z" fill="#121112"/>
<path id="f3-path-008" d="M1016.27 295.784V295.56H1018.68C1019.24 295.56 1019.67 295.685 1019.98 295.936C1020.28 296.187 1020.43 296.523 1020.43 296.944V297.128C1020.43 297.448 1020.35 297.72 1020.17 297.944C1019.99 298.168 1019.74 298.328 1019.41 298.424L1020.41 300.328C1020.47 300.445 1020.52 300.531 1020.55 300.584C1020.59 300.637 1020.62 300.672 1020.64 300.688C1020.67 300.699 1020.72 300.709 1020.77 300.72L1021.13 300.776V301H1019.63L1018.43 298.52H1017.84V300.328C1017.84 300.509 1017.85 300.619 1017.87 300.656C1017.88 300.688 1017.93 300.709 1018.02 300.72L1018.46 300.776V301H1016.27V300.776L1016.71 300.72C1016.79 300.709 1016.84 300.688 1016.86 300.656C1016.87 300.619 1016.88 300.509 1016.88 300.328V296.232C1016.88 296.051 1016.87 295.944 1016.86 295.912C1016.84 295.875 1016.79 295.851 1016.71 295.84L1016.27 295.784ZM1018.68 295.84H1017.84V298.24H1018.68C1018.92 298.24 1019.1 298.168 1019.22 298.024C1019.35 297.875 1019.41 297.603 1019.41 297.208V296.864C1019.41 296.469 1019.35 296.2 1019.22 296.056C1019.1 295.912 1018.92 295.84 1018.68 295.84ZM1025.21 298.888V299.048C1025.21 299.661 1025.05 300.155 1024.73 300.528C1024.42 300.896 1023.97 301.08 1023.38 301.08C1022.79 301.08 1022.34 300.896 1022.02 300.528C1021.71 300.155 1021.55 299.661 1021.55 299.048V298.888C1021.55 298.275 1021.71 297.784 1022.02 297.416C1022.34 297.048 1022.79 296.864 1023.38 296.864C1023.97 296.864 1024.42 297.048 1024.73 297.416C1025.05 297.784 1025.21 298.275 1025.21 298.888ZM1024.23 298.728C1024.23 298.157 1024.16 297.752 1024.01 297.512C1023.87 297.267 1023.66 297.144 1023.38 297.144C1023.11 297.144 1022.9 297.267 1022.75 297.512C1022.6 297.752 1022.53 298.157 1022.53 298.728V299.208C1022.53 299.773 1022.6 300.181 1022.75 300.432C1022.9 300.677 1023.11 300.8 1023.38 300.8C1023.66 300.8 1023.87 300.677 1024.01 300.432C1024.16 300.181 1024.23 299.773 1024.23 299.208V298.728ZM1029.71 298.888V299.048C1029.71 299.661 1029.55 300.155 1029.23 300.528C1028.91 300.896 1028.46 301.08 1027.87 301.08C1027.29 301.08 1026.83 300.896 1026.51 300.528C1026.2 300.155 1026.04 299.661 1026.04 299.048V298.888C1026.04 298.275 1026.2 297.784 1026.51 297.416C1026.83 297.048 1027.29 296.864 1027.87 296.864C1028.46 296.864 1028.91 297.048 1029.23 297.416C1029.55 297.784 1029.71 298.275 1029.71 298.888ZM1028.72 298.728C1028.72 298.157 1028.65 297.752 1028.51 297.512C1028.36 297.267 1028.15 297.144 1027.87 297.144C1027.6 297.144 1027.39 297.267 1027.24 297.512C1027.1 297.752 1027.03 298.157 1027.03 298.728V299.208C1027.03 299.773 1027.1 300.181 1027.24 300.432C1027.39 300.677 1027.6 300.8 1027.87 300.8C1028.15 300.8 1028.36 300.677 1028.51 300.432C1028.65 300.181 1028.72 299.773 1028.72 299.208V298.728ZM1032.61 300.776V301H1030.3V300.776L1030.74 300.72C1030.83 300.709 1030.88 300.688 1030.89 300.656C1030.91 300.619 1030.92 300.509 1030.92 300.328V297.616C1030.92 297.435 1030.91 297.328 1030.89 297.296C1030.88 297.259 1030.83 297.235 1030.74 297.224L1030.3 297.168V296.944H1030.92V296.672C1030.92 296.389 1030.97 296.12 1031.08 295.864C1031.19 295.608 1031.37 295.4 1031.61 295.24C1031.85 295.08 1032.16 295 1032.55 295C1032.96 295 1033.27 295.091 1033.48 295.272C1033.69 295.453 1033.82 295.685 1033.88 295.968C1033.93 295.941 1033.97 295.915 1034.02 295.888C1034.07 295.856 1034.11 295.827 1034.16 295.8H1034.37V296.944H1035.65V297.224H1034.37V299.888C1034.37 300.229 1034.42 300.467 1034.5 300.6C1034.59 300.728 1034.7 300.792 1034.83 300.792C1034.97 300.792 1035.07 300.739 1035.15 300.632C1035.23 300.525 1035.28 300.331 1035.3 300.048L1035.78 300.168C1035.71 300.493 1035.58 300.728 1035.38 300.872C1035.19 301.011 1034.95 301.08 1034.68 301.08C1034.39 301.08 1034.16 301.019 1033.98 300.896C1033.8 300.768 1033.67 300.6 1033.58 300.392C1033.5 300.184 1033.45 299.963 1033.45 299.728V297.224H1031.84V300.328C1031.84 300.509 1031.85 300.619 1031.86 300.656C1031.88 300.688 1031.93 300.709 1032.01 300.72L1032.61 300.776ZM1031.84 296.512V296.944H1033.45V296.512C1033.45 296.043 1033.39 295.723 1033.25 295.552C1033.13 295.381 1032.93 295.296 1032.67 295.296C1032.51 295.296 1032.37 295.331 1032.24 295.4C1032.11 295.464 1032.02 295.584 1031.94 295.76C1031.87 295.931 1031.84 296.181 1031.84 296.512ZM1039.99 298.888V299.048C1039.99 299.661 1039.83 300.155 1039.51 300.528C1039.19 300.896 1038.74 301.08 1038.15 301.08C1037.57 301.08 1037.11 300.896 1036.79 300.528C1036.48 300.155 1036.32 299.661 1036.32 299.048V298.888C1036.32 298.275 1036.48 297.784 1036.79 297.416C1037.11 297.048 1037.57 296.864 1038.15 296.864C1038.74 296.864 1039.19 297.048 1039.51 297.416C1039.83 297.784 1039.99 298.275 1039.99 298.888ZM1039 298.728C1039 298.157 1038.93 297.752 1038.79 297.512C1038.64 297.267 1038.43 297.144 1038.15 297.144C1037.88 297.144 1037.67 297.267 1037.52 297.512C1037.38 297.752 1037.31 298.157 1037.31 298.728V299.208C1037.31 299.773 1037.38 300.181 1037.52 300.432C1037.67 300.677 1037.88 300.8 1038.15 300.8C1038.43 300.8 1038.64 300.677 1038.79 300.432C1038.93 300.181 1039 299.773 1039 299.208V298.728ZM1040.53 297.168V296.944H1042.01V297.608C1042.17 297.357 1042.34 297.171 1042.52 297.048C1042.7 296.925 1042.92 296.864 1043.17 296.864C1043.61 296.864 1043.97 297.043 1044.23 297.4C1044.5 297.752 1044.63 298.248 1044.63 298.888V299.048C1044.63 299.667 1044.48 300.16 1044.17 300.528C1043.87 300.896 1043.45 301.08 1042.91 301.08C1042.59 301.08 1042.31 301 1042.06 300.84V302.032C1042.06 302.213 1042.07 302.32 1042.09 302.352C1042.1 302.389 1042.15 302.413 1042.24 302.424L1042.84 302.48V302.704H1040.53V302.48L1040.97 302.424C1041.05 302.413 1041.1 302.389 1041.12 302.352C1041.13 302.32 1041.14 302.213 1041.14 302.032V297.616C1041.14 297.435 1041.13 297.328 1041.12 297.296C1041.1 297.259 1041.05 297.235 1040.97 297.224L1040.53 297.168ZM1042.96 297.216C1042.83 297.216 1042.68 297.272 1042.53 297.384C1042.39 297.491 1042.23 297.712 1042.06 298.048V300.464C1042.27 300.667 1042.51 300.768 1042.81 300.768C1043.11 300.768 1043.32 300.637 1043.45 300.376C1043.58 300.109 1043.65 299.747 1043.65 299.288V298.648C1043.65 298.152 1043.59 297.789 1043.46 297.56C1043.34 297.331 1043.17 297.216 1042.96 297.216Z" fill="#121112"/>
</svg>
